<!DOCTYPE svg PUBLIC "-//W3C//DTD SVG 1.0//EN" "http://www.w3.org/TR/2001/REC-SVG-20010904/DTD/svg10.dtd" [
 <!ATTLIST svg xmlns:xlink CDATA #FIXED "http://www.w3.org/1999/xlink">
]><svg width="1770pt" height="1742pt" viewBox="0.00 0.00 1770.00 1742.00" xmlns="http://www.w3.org/2000/svg" xmlns:xlink="http://www.w3.org/1999/xlink"><g class="graph" transform="translate(4 1738)"><title>d1e194</title><polygon points="-4,4 -4,-1738 1766,-1738 1766,4 -4,4" fill="#fff" stroke="#fff"/><text text-anchor="middle" x="881" y="-7.9" font-family="Times New Roman" font-size="14">Powered by http://rhizomik.net</text><g class="node"><title>http://richard.fussenegger.info/FHS-SW-Blatt1-Richard-Fussenegger-2.rdf#details</title><a xlink:href="http://richard.fussenegger.info/FHS-SW-Blatt1-Richard-Fussenegger-2.rdf#details" xlink:title="rdf:Property:\nhttp://richard.fussenegger.info/FHS-SW-Blatt1-Richard-Fussenegger-2.rdf#details"><polygon points="403,-1439 3,-1439 3,-1405 403,-1405 403,-1439" stroke="#000" fill="none"/><text text-anchor="middle" x="203" y="-1426" font-family="Times New Roman" font-size="10" fill="#00f">rdf:Property:</text><text text-anchor="middle" x="203" y="-1413" font-family="Times New Roman" font-size="10" fill="#00f">http://richard.fussenegger.info/FHS-SW-Blatt1-Richard-Fussenegger-2.rdf#details</text></a></g><g class="node"><title>&quot;Technical details about this specific photo\n(e.g. ISO value).&quot;</title><text text-anchor="middle" x="714" y="-1679" font-family="Times New Roman" font-size="10">&quot;Technical details about this specific photo</text><text text-anchor="middle" x="714" y="-1666" font-family="Times New Roman" font-size="10">(e.g. ISO value).&quot;</text></g><g class="edge"><title>http://richard.fussenegger.info/FHS-SW-Blatt1-Richard-Fussenegger-2.rdf#details-&gt;&quot;Technical details about this specific photo\n(e.g. ISO value).&quot;</title><path d="M219-1439c41-44 156-157 277-207 31-13 67-20 99-24" stroke="#00f" fill="none"/><polygon points="594.701,-1673.49 605,-1671 595.398,-1666.52 594.701,-1673.49" fill="#00f" stroke="#00f"/><text text-anchor="middle" x="451" y="-1644.5" font-family="Times New Roman" font-size="10">rdfs:comment</text></g><g class="node"><title>http://www.w3.org/2000/01/rdf-schema#Literal</title><a xlink:href="http://www.w3.org/2000/01/rdf-schema#Literal" xlink:title="http://www.w3.org/2000/01/rdf-schema#Literal"><polygon points="1374,-1254.5 1140,-1254.5 1140,-1233.5 1374,-1233.5 1374,-1254.5" stroke="#000" fill="none"/><text text-anchor="middle" x="1257" y="-1241.5" font-family="Times New Roman" font-size="10" fill="#00f">http://www.w3.org/2000/01/rdf-schema#Literal</text></a></g><g class="edge"><title>http://richard.fussenegger.info/FHS-SW-Blatt1-Richard-Fussenegger-2.rdf#details-&gt;http://www.w3.org/2000/01/rdf-schema#Literal</title><path d="M304-1405c213 36 701 119 883 149" stroke="#00f" fill="none"/><polygon points="1187.88,-1259.39 1197,-1254 1186.51,-1252.53 1187.88,-1259.39" fill="#00f" stroke="#00f"/><text text-anchor="middle" x="714" y="-1377.5" font-family="Times New Roman" font-size="10">rdfs:range</text></g><g class="node"><title>http://richard.fussenegger.info/FHS-SW-Blatt1-Richard-Fussenegger-2.rdf#TechnicalData</title><a xlink:href="http://richard.fussenegger.info/FHS-SW-Blatt1-Richard-Fussenegger-2.rdf#Technica\nlData" xlink:title="rdfs:Class:\nhttp://richard.fussenegger.info/FHS-SW-Blatt1-Richard-Fussenegger-2.rdf#TechnicalData"><polygon points="931,-261 497,-261 497,-227 931,-227 931,-261" stroke="#000" fill="none"/><text text-anchor="middle" x="714" y="-248" font-family="Times New Roman" font-size="10" fill="#00f">rdfs:Class:</text><text text-anchor="middle" x="714" y="-235" font-family="Times New Roman" font-size="10" fill="#00f">http://richard.fussenegger.info/FHS-SW-Blatt1-Richard-Fussenegger-2.rdf#TechnicalData</text></a></g><g class="edge"><title>http://richard.fussenegger.info/FHS-SW-Blatt1-Richard-Fussenegger-2.rdf#details-&gt;http://richard.fussenegger.info/FHS-SW-Blatt1-Richard-Fussenegger-2.rdf#TechnicalData</title><path d="M208-1405c31 101 189 622 277 1057 4 16-1 64 11 76l5 5" stroke="#00f" fill="none"/><polygon points="503.1,-269.8 509,-261 498.9,-264.2 503.1,-269.8" fill="#00f" stroke="#00f"/><text text-anchor="middle" x="451" y="-650.5" font-family="Times New Roman" font-size="10">rdfs:domain</text></g><g class="node"><title>&quot;Details&quot;</title><text text-anchor="middle" x="714" y="-1530.5" font-family="Times New Roman" font-size="10">&quot;Details&quot;</text></g><g class="edge"><title>http://richard.fussenegger.info/FHS-SW-Blatt1-Richard-Fussenegger-2.rdf#details-&gt;&quot;Details&quot;</title><path d="M255-1439c59-18 156-48 241-65 62-13 135-22 179-26" stroke="#00f" fill="none"/><polygon points="674.701,-1533.49 685,-1531 675.398,-1526.52 674.701,-1533.49" fill="#00f" stroke="#00f"/><text text-anchor="middle" x="451" y="-1505.5" font-family="Times New Roman" font-size="10">rdfs:label</text></g><g class="node"><title>http://richard.fussenegger.info/FHS-SW-Blatt1-Richard-Fussenegger-2.rdf#DigitalPhoto</title><a xlink:href="http://richard.fussenegger.info/FHS-SW-Blatt1-Richard-Fussenegger-2.rdf#DigitalP\nhoto" xlink:title="rdfs:Class:\nhttp://richard.fussenegger.info/FHS-SW-Blatt1-Richard-Fussenegger-2.rdf#DigitalPhoto"><polygon points="1470,-870 1044,-870 1044,-836 1470,-836 1470,-870" stroke="#000" fill="none"/><text text-anchor="middle" x="1257" y="-857" font-family="Times New Roman" font-size="10" fill="#00f">rdfs:Class:</text><text text-anchor="middle" x="1257" y="-844" font-family="Times New Roman" font-size="10" fill="#00f">http://richard.fussenegger.info/FHS-SW-Blatt1-Richard-Fussenegger-2.rdf#DigitalPhoto</text></a></g><g class="edge"><title>http://richard.fussenegger.info/FHS-SW-Blatt1-Richard-Fussenegger-2.rdf#TechnicalData-&gt;http://richard.fussenegger.info/FHS-SW-Blatt1-Richard-Fussenegger-2.rdf#DigitalPhoto</title><path d="M921-261c4-3 7-7 11-11 28-31-14-335 11-366 26-33 64 8 90-23 22-26-11-127 11-152 6-6 13-12 20-17" stroke="#00f" fill="none"/><polygon points="1062.74,-833.365 1073,-836 1066.62,-827.541 1062.74,-833.365" fill="#00f" stroke="#00f"/><text text-anchor="middle" x="988" y="-665.5" font-family="Times New Roman" font-size="10">rdfs:subClassOf</text></g><g class="node"><title>&quot;Represents technical information about a\ndigital photo.&quot;</title><text text-anchor="middle" x="1257" y="-190" font-family="Times New Roman" font-size="10">&quot;Represents technical information about a</text><text text-anchor="middle" x="1257" y="-177" font-family="Times New Roman" font-size="10">digital photo.&quot;</text></g><g class="edge"><title>http://richard.fussenegger.info/FHS-SW-Blatt1-Richard-Fussenegger-2.rdf#TechnicalData-&gt;&quot;Represents technical information about a\ndigital photo.&quot;</title><path d="M873-227c85 9 188 20 266 28" stroke="#00f" fill="none"/><polygon points="1139.4,-202.478 1149,-198 1138.7,-195.512 1139.4,-202.478" fill="#00f" stroke="#00f"/><text text-anchor="middle" x="988" y="-224.5" font-family="Times New Roman" font-size="10">rdfs:comment</text></g><g class="node"><title>&quot;Technical Data&quot;</title><text text-anchor="middle" x="1257" y="-241.5" font-family="Times New Roman" font-size="10">&quot;Technical Data&quot;</text></g><g class="edge"><title>http://richard.fussenegger.info/FHS-SW-Blatt1-Richard-Fussenegger-2.rdf#TechnicalData-&gt;&quot;Technical Data&quot;</title><path d="M932-244h268" stroke="#00f" fill="none"/><polygon points="1200,-247.5 1210,-244 1200,-240.5 1200,-247.5" fill="#00f" stroke="#00f"/><text text-anchor="middle" x="988" y="-248.5" font-family="Times New Roman" font-size="10">rdfs:label</text></g><g class="node"><title>http://purl.org/dc/elements/1.1/creator</title><a xlink:href="http://purl.org/dc/elements/1.1/creator" xlink:title="http://purl.org/dc/elements/1.1/creator"><polygon points="1356,-504.5 1158,-504.5 1158,-483.5 1356,-483.5 1356,-504.5" stroke="#000" fill="none"/><text text-anchor="middle" x="1257" y="-491.5" font-family="Times New Roman" font-size="10" fill="#00f">http://purl.org/dc/elements/1.1/creator</text></a></g><g class="node"><title>http://richard.fussenegger.info/FHS-SW-Blatt1-Richard-Fussenegger-2.rdf#date</title><a xlink:href="http://richard.fussenegger.info/FHS-SW-Blatt1-Richard-Fussenegger-2.rdf#date" xlink:title="rdf:Property:\nhttp://richard.fussenegger.info/FHS-SW-Blatt1-Richard-Fussenegger-2.rdf#date"><polygon points="909,-1493 519,-1493 519,-1459 909,-1459 909,-1493" stroke="#000" fill="none"/><text text-anchor="middle" x="714" y="-1480" font-family="Times New Roman" font-size="10" fill="#00f">rdf:Property:</text><text text-anchor="middle" x="714" y="-1467" font-family="Times New Roman" font-size="10" fill="#00f">http://richard.fussenegger.info/FHS-SW-Blatt1-Richard-Fussenegger-2.rdf#date</text></a></g><g class="node"><title>&quot;The creation datetime in W3CDTF profile of ISO\n8601.&quot;</title><text text-anchor="middle" x="1257" y="-1596" font-family="Times New Roman" font-size="10">&quot;The creation datetime in W3CDTF profile of ISO</text><text text-anchor="middle" x="1257" y="-1583" font-family="Times New Roman" font-size="10">8601.&quot;</text></g><g class="edge"><title>http://richard.fussenegger.info/FHS-SW-Blatt1-Richard-Fussenegger-2.rdf#date-&gt;&quot;The creation datetime in W3CDTF profile of ISO\n8601.&quot;</title><path d="M909-1489c8-4 16-9 23-15 13-11 0-24 11-35 34-32 56-16 101-24 26-5 54-10 81-14" stroke="#00f" fill="none"/><polygon points="1124.7,-1580.49 1135,-1578 1125.4,-1573.52 1124.7,-1580.49" fill="#00f" stroke="#00f"/><text text-anchor="middle" x="988" y="-1567.5" font-family="Times New Roman" font-size="10">rdfs:comment</text></g><g class="edge"><title>http://richard.fussenegger.info/FHS-SW-Blatt1-Richard-Fussenegger-2.rdf#date-&gt;http://richard.fussenegger.info/FHS-SW-Blatt1-Richard-Fussenegger-2.rdf#DigitalPhoto</title><path d="M755-1459c52 24 140 74 177 147 19 36-14 338 11 371 26 32 51 12 90 23 54 14 114 32 158 45" stroke="#00f" fill="none"/><polygon points="1192.43,-876.226 1201,-870 1190.42,-869.521 1192.43,-876.226" fill="#00f" stroke="#00f"/><text text-anchor="middle" x="988" y="-948.5" font-family="Times New Roman" font-size="10">rdfs:domain</text></g><g class="node"><title>http://www.w3.org/2001/XMLSchema#date</title><a xlink:href="http://www.w3.org/2001/XMLSchema#date" xlink:title="http://www.w3.org/2001/XMLSchema#date"><polygon points="1366,-1552.5 1148,-1552.5 1148,-1531.5 1366,-1531.5 1366,-1552.5" stroke="#000" fill="none"/><text text-anchor="middle" x="1257" y="-1539.5" font-family="Times New Roman" font-size="10" fill="#00f">http://www.w3.org/2001/XMLSchema#date</text></a></g><g class="edge"><title>http://richard.fussenegger.info/FHS-SW-Blatt1-Richard-Fussenegger-2.rdf#date-&gt;http://www.w3.org/2001/XMLSchema#date</title><path d="M878-1493c18-3 37-7 54-11 6-2 6-3 11-4 44-11 57-8 101-13 31-4 64-7 94-10" stroke="#00f" fill="none"/><polygon points="1137.7,-1534.49 1148,-1532 1138.4,-1527.52 1137.7,-1534.49" fill="#00f" stroke="#00f"/><text text-anchor="middle" x="988" y="-1525.5" font-family="Times New Roman" font-size="10">rdfs:range</text></g><g class="node"><title>http://purl.org/dc/elements/1.1/date</title><a xlink:href="http://purl.org/dc/elements/1.1/date" xlink:title="http://purl.org/dc/elements/1.1/date"><polygon points="1350,-1510.5 1164,-1510.5 1164,-1489.5 1350,-1489.5 1350,-1510.5" stroke="#000" fill="none"/><text text-anchor="middle" x="1257" y="-1497.5" font-family="Times New Roman" font-size="10" fill="#00f">http://purl.org/dc/elements/1.1/date</text></a></g><g class="edge"><title>http://richard.fussenegger.info/FHS-SW-Blatt1-Richard-Fussenegger-2.rdf#date-&gt;http://purl.org/dc/elements/1.1/date</title><path d="M909-1485c83-4 176-8 245-11" stroke="#00f" fill="none"/><polygon points="1154,-1499.5 1164,-1496 1154,-1492.5 1154,-1499.5" fill="#00f" stroke="#00f"/><text text-anchor="middle" x="988" y="-1494.5" font-family="Times New Roman" font-size="10">rdfs:subPropertyOf</text></g><g class="node"><title>&quot;Date&quot;</title><text text-anchor="middle" x="1257" y="-1447.5" font-family="Times New Roman" font-size="10">&quot;Date&quot;</text></g><g class="edge"><title>http://richard.fussenegger.info/FHS-SW-Blatt1-Richard-Fussenegger-2.rdf#date-&gt;&quot;Date&quot;</title><path d="M909-1467c114 6 247 12 311 15" stroke="#00f" fill="none"/><polygon points="1220.4,-1455.48 1230,-1451 1219.7,-1448.51 1220.4,-1455.48" fill="#00f" stroke="#00f"/><text text-anchor="middle" x="988" y="-1470.5" font-family="Times New Roman" font-size="10">rdfs:label</text></g><g class="node"><title>&quot;Represents information about a digital\nphoto.&quot;</title><text text-anchor="middle" x="1661" y="-886" font-family="Times New Roman" font-size="10">&quot;Represents information about a digital</text><text text-anchor="middle" x="1661" y="-873" font-family="Times New Roman" font-size="10">photo.&quot;</text></g><g class="edge"><title>http://richard.fussenegger.info/FHS-SW-Blatt1-Richard-Fussenegger-2.rdf#DigitalPhoto-&gt;&quot;Represents information about a digital\nphoto.&quot;</title><path d="M1470-868c27-2 54-4 80-6" stroke="#00f" fill="none"/><polygon points="1549.7,-877.488 1560,-875 1550.4,-870.522 1549.7,-877.488" fill="#00f" stroke="#00f"/><text text-anchor="middle" x="1515" y="-879.5" font-family="Times New Roman" font-size="10">rdfs:comment</text></g><g class="node"><title>&quot;Digital Photo&quot;</title><text text-anchor="middle" x="1661" y="-821.5" font-family="Times New Roman" font-size="10">&quot;Digital Photo&quot;</text></g><g class="edge"><title>http://richard.fussenegger.info/FHS-SW-Blatt1-Richard-Fussenegger-2.rdf#DigitalPhoto-&gt;&quot;Digital Photo&quot;</title><path d="M1470-838c52 4 102 7 139 10" stroke="#00f" fill="none"/><polygon points="1609.4,-831.478 1619,-827 1608.7,-824.512 1609.4,-831.478" fill="#00f" stroke="#00f"/><text text-anchor="middle" x="1515" y="-842.5" font-family="Times New Roman" font-size="10">rdfs:label</text></g><g class="node"><title>http://purl.org/dc/elements/1.1/title</title><a xlink:href="http://purl.org/dc/elements/1.1/title" xlink:title="http://purl.org/dc/elements/1.1/title"><polygon points="1348,-662.5 1166,-662.5 1166,-641.5 1348,-641.5 1348,-662.5" stroke="#000" fill="none"/><text text-anchor="middle" x="1257" y="-649.5" font-family="Times New Roman" font-size="10" fill="#00f">http://purl.org/dc/elements/1.1/title</text></a></g><g class="node"><title>http://purl.org/dc/elements/1.1/description</title><a xlink:href="http://purl.org/dc/elements/1.1/description" xlink:title="http://purl.org/dc/elements/1.1/description"><polygon points="1365,-1133.5 1149,-1133.5 1149,-1112.5 1365,-1112.5 1365,-1133.5" stroke="#000" fill="none"/><text text-anchor="middle" x="1257" y="-1120.5" font-family="Times New Roman" font-size="10" fill="#00f">http://purl.org/dc/elements/1.1/description</text></a></g><g class="node"><title>http://richard.fussenegger.info/FHS-SW-Blatt1-Richard-Fussenegger-2.rdf#series</title><a xlink:href="http://richard.fussenegger.info/FHS-SW-Blatt1-Richard-Fussenegger-2.rdf#series" xlink:title="rdf:Property:\nhttp://richard.fussenegger.info/FHS-SW-Blatt1-Richard-Fussenegger-2.rdf#series"><polygon points="912,-1635 516,-1635 516,-1601 912,-1601 912,-1635" stroke="#000" fill="none"/><text text-anchor="middle" x="714" y="-1622" font-family="Times New Roman" font-size="10" fill="#00f">rdf:Property:</text><text text-anchor="middle" x="714" y="-1609" font-family="Times New Roman" font-size="10" fill="#00f">http://richard.fussenegger.info/FHS-SW-Blatt1-Richard-Fussenegger-2.rdf#series</text></a></g><g class="edge"><title>http://richard.fussenegger.info/FHS-SW-Blatt1-Richard-Fussenegger-2.rdf#series-&gt;http://www.w3.org/2000/01/rdf-schema#Literal</title><path d="M913-1616c54 5 102 15 120 35 21 22-7 251 11 276 21 26 52 42 85 51" stroke="#00f" fill="none"/><polygon points="1129.88,-1257.39 1139,-1252 1128.51,-1250.53 1129.88,-1257.39" fill="#00f" stroke="#00f"/><text text-anchor="middle" x="988" y="-1617.5" font-family="Times New Roman" font-size="10">rdfs:range</text></g><g class="edge"><title>http://richard.fussenegger.info/FHS-SW-Blatt1-Richard-Fussenegger-2.rdf#series-&gt;http://richard.fussenegger.info/FHS-SW-Blatt1-Richard-Fussenegger-2.rdf#DigitalPhoto</title><path d="M878-1601c21 9 40 21 54 39 17 20 0 209 11 232 24 45 68 25 90 71 17 32-10 301 11 331 20 26 50 44 81 55" stroke="#00f" fill="none"/><polygon points="1126.43,-876.226 1135,-870 1124.42,-869.521 1126.43,-876.226" fill="#00f" stroke="#00f"/><text text-anchor="middle" x="988" y="-1343.5" font-family="Times New Roman" font-size="10">rdfs:domain</text></g><g class="node"><title>&quot;Either the title of the photo series or a URI\nto the series.&quot;</title><text text-anchor="middle" x="1257" y="-1662" font-family="Times New Roman" font-size="10">&quot;Either the title of the photo series or a URI</text><text text-anchor="middle" x="1257" y="-1649" font-family="Times New Roman" font-size="10">to the series.&quot;</text></g><g class="edge"><title>http://richard.fussenegger.info/FHS-SW-Blatt1-Richard-Fussenegger-2.rdf#series-&gt;&quot;Either the title of the photo series or a URI\nto the series.&quot;</title><path d="M913-1633c75-6 157-11 223-16" stroke="#00f" fill="none"/><polygon points="1135.7,-1652.49 1146,-1650 1136.4,-1645.52 1135.7,-1652.49" fill="#00f" stroke="#00f"/><text text-anchor="middle" x="988" y="-1645.5" font-family="Times New Roman" font-size="10">rdfs:comment</text></g><g class="node"><title>&quot;Series&quot;</title><text text-anchor="middle" x="1257" y="-1713.5" font-family="Times New Roman" font-size="10">&quot;Series&quot;</text></g><g class="edge"><title>http://richard.fussenegger.info/FHS-SW-Blatt1-Richard-Fussenegger-2.rdf#series-&gt;&quot;Series&quot;</title><path d="M908-1635c8-3 16-7 24-11 7-4 5-9 11-13 40-25 56-18 101-28 61-12 133-21 176-25" stroke="#00f" fill="none"/><polygon points="1219.7,-1715.49 1230,-1713 1220.4,-1708.52 1219.7,-1715.49" fill="#00f" stroke="#00f"/><text text-anchor="middle" x="988" y="-1687.5" font-family="Times New Roman" font-size="10">rdfs:label</text></g><g class="node"><title>http://www.geonames.org/ontology#name</title><a xlink:href="http://www.geonames.org/ontology#name" xlink:title="http://www.geonames.org/ontology#name"><polygon points="1365,-404.5 1149,-404.5 1149,-383.5 1365,-383.5 1365,-404.5" stroke="#000" fill="none"/><text text-anchor="middle" x="1257" y="-391.5" font-family="Times New Roman" font-size="10" fill="#00f">http://www.geonames.org/ontology#name</text></a></g><g class="node"><title>http://www.w3.org/2002/07/owl#Thing</title><a xlink:href="http://www.w3.org/2002/07/owl#Thing" xlink:title="http://www.w3.org/2002/07/owl#Thing"><polygon points="810,-183.5 618,-183.5 618,-162.5 810,-162.5 810,-183.5" stroke="#000" fill="none"/><text text-anchor="middle" x="714" y="-170.5" font-family="Times New Roman" font-size="10" fill="#00f">http://www.w3.org/2002/07/owl#Thing</text></a></g><g class="node"><title>http://richard.fussenegger.info/FHS-SW-Blatt1-Richard-Fussenegger-2.rdf#lens</title><a xlink:href="http://richard.fussenegger.info/FHS-SW-Blatt1-Richard-Fussenegger-2.rdf#lens" xlink:title="rdf:Property:\nhttp://richard.fussenegger.info/FHS-SW-Blatt1-Richard-Fussenegger-2.rdf#lens"><polygon points="397,-138 9,-138 9,-104 397,-104 397,-138" stroke="#000" fill="none"/><text text-anchor="middle" x="203" y="-125" font-family="Times New Roman" font-size="10" fill="#00f">rdf:Property:</text><text text-anchor="middle" x="203" y="-112" font-family="Times New Roman" font-size="10" fill="#00f">http://richard.fussenegger.info/FHS-SW-Blatt1-Richard-Fussenegger-2.rdf#lens</text></a></g><g class="edge"><title>http://richard.fussenegger.info/FHS-SW-Blatt1-Richard-Fussenegger-2.rdf#lens-&gt;http://richard.fussenegger.info/FHS-SW-Blatt1-Richard-Fussenegger-2.rdf#TechnicalData</title><path d="M270-138c59-15 148-38 226-56 43-11 91-22 131-31" stroke="#00f" fill="none"/><polygon points="626.508,-228.471 637,-227 627.881,-221.607 626.508,-228.471" fill="#00f" stroke="#00f"/><text text-anchor="middle" x="451" y="-195.5" font-family="Times New Roman" font-size="10">rdfs:domain</text></g><g class="edge"><title>http://richard.fussenegger.info/FHS-SW-Blatt1-Richard-Fussenegger-2.rdf#lens-&gt;http://www.w3.org/2002/07/owl#Thing</title><path d="M397-133c30-2 60-5 88-8 52-6 111-14 155-20" stroke="#00f" fill="none"/><polygon points="639.508,-164.471 650,-163 640.881,-157.607 639.508,-164.471" fill="#00f" stroke="#00f"/><text text-anchor="middle" x="451" y="-145.5" font-family="Times New Roman" font-size="10">rdfs:range</text></g><g class="node"><title>&quot;The exact lens name and model or a URI.&quot;</title><text text-anchor="middle" x="714" y="-40.5" font-family="Times New Roman" font-size="10">&quot;The exact lens name and model or a URI.&quot;</text></g><g class="edge"><title>http://richard.fussenegger.info/FHS-SW-Blatt1-Richard-Fussenegger-2.rdf#lens-&gt;&quot;The exact lens name and model or a URI.&quot;</title><path d="M297-104c37 7 81 14 120 21 58 8 122 18 176 25" stroke="#00f" fill="none"/><polygon points="593.398,-61.4778 603,-57 592.701,-54.5125 593.398,-61.4778" fill="#00f" stroke="#00f"/><text text-anchor="middle" x="451" y="-87.5" font-family="Times New Roman" font-size="10">rdfs:comment</text></g><g class="node"><title>&quot;Lens&quot;</title><text text-anchor="middle" x="714" y="-98.5" font-family="Times New Roman" font-size="10">&quot;Lens&quot;</text></g><g class="edge"><title>http://richard.fussenegger.info/FHS-SW-Blatt1-Richard-Fussenegger-2.rdf#lens-&gt;&quot;Lens&quot;</title><path d="M371-104c16 1 31 2 46 3 94 5 204 2 260 1" stroke="#00f" fill="none"/><polygon points="677,-103.5 687,-100 677,-96.5001 677,-103.5" fill="#00f" stroke="#00f"/><text text-anchor="middle" x="451" y="-105.5" font-family="Times New Roman" font-size="10">rdfs:label</text></g><g class="node"><title>http://www.geonames.org/ontology</title><a xlink:href="http://www.geonames.org/ontology" xlink:title="http://www.geonames.org/ontology"><polygon points="1347,-362.5 1167,-362.5 1167,-341.5 1347,-341.5 1347,-362.5" stroke="#000" fill="none"/><text text-anchor="middle" x="1257" y="-349.5" font-family="Times New Roman" font-size="10" fill="#00f">http://www.geonames.org/ontology</text></a></g><g class="node"><title>http://richard.fussenegger.info/FHS-SW-Blatt1-Richard-Fussenegger-2.rdf#id</title><a xlink:href="http://richard.fussenegger.info/FHS-SW-Blatt1-Richard-Fussenegger-2.rdf#id" xlink:title="rdf:Property:\nhttp://richard.fussenegger.info/FHS-SW-Blatt1-Richard-Fussenegger-2.rdf#id"><polygon points="902,-1250 526,-1250 526,-1216 902,-1216 902,-1250" stroke="#000" fill="none"/><text text-anchor="middle" x="714" y="-1237" font-family="Times New Roman" font-size="10" fill="#00f">rdf:Property:</text><text text-anchor="middle" x="714" y="-1224" font-family="Times New Roman" font-size="10" fill="#00f">http://richard.fussenegger.info/FHS-SW-Blatt1-Richard-Fussenegger-2.rdf#id</text></a></g><g class="edge"><title>http://richard.fussenegger.info/FHS-SW-Blatt1-Richard-Fussenegger-2.rdf#id-&gt;http://www.w3.org/2000/01/rdf-schema#Literal</title><path d="M903-1237l40-1c61-1 129-3 186-4" stroke="#00f" fill="none"/><polygon points="1129,-1245.5 1139,-1242 1129,-1238.5 1129,-1245.5" fill="#00f" stroke="#00f"/><text text-anchor="middle" x="988" y="-1245.5" font-family="Times New Roman" font-size="10">rdfs:range</text></g><g class="edge"><title>http://richard.fussenegger.info/FHS-SW-Blatt1-Richard-Fussenegger-2.rdf#id-&gt;http://richard.fussenegger.info/FHS-SW-Blatt1-Richard-Fussenegger-2.rdf#DigitalPhoto</title><path d="M765-1216c52 21 130 60 167 124 22 36-17 156 11 188 10 11 77 24 146 33" stroke="#00f" fill="none"/><polygon points="1089.4,-874.478 1099,-870 1088.7,-867.512 1089.4,-874.478" fill="#00f" stroke="#00f"/><text text-anchor="middle" x="988" y="-911.5" font-family="Times New Roman" font-size="10">rdfs:domain</text></g><g class="node"><title>&quot;Unique identifier for the creator or within\nthe series.&quot;</title><text text-anchor="middle" x="1257" y="-1396" font-family="Times New Roman" font-size="10">&quot;Unique identifier for the creator or within</text><text text-anchor="middle" x="1257" y="-1383" font-family="Times New Roman" font-size="10">the series.&quot;</text></g><g class="edge"><title>http://richard.fussenegger.info/FHS-SW-Blatt1-Richard-Fussenegger-2.rdf#id-&gt;&quot;Unique identifier for the creator or within\nthe series.&quot;</title><path d="M903-1245c11-6 20-13 29-22 18-19-7-95 11-112 28-27 120-28 197-24" stroke="#00f" fill="none"/><polygon points="1140.4,-1406.48 1150,-1402 1139.7,-1399.51 1140.4,-1406.48" fill="#00f" stroke="#00f"/><text text-anchor="middle" x="988" y="-1408.5" font-family="Times New Roman" font-size="10">rdfs:comment</text></g><g class="node"><title>&quot;Identifier&quot;</title><text text-anchor="middle" x="1257" y="-1331.5" font-family="Times New Roman" font-size="10">&quot;Identifier&quot;</text></g><g class="edge"><title>http://richard.fussenegger.info/FHS-SW-Blatt1-Richard-Fussenegger-2.rdf#id-&gt;&quot;Identifier&quot;</title><path d="M903-1245c10-6 20-13 29-22 26-26-16-57 11-80 31-27 51-2 90 0 63 1 136 6 181 9" stroke="#00f" fill="none"/><polygon points="1214.4,-1341.48 1224,-1337 1213.7,-1334.51 1214.4,-1341.48" fill="#00f" stroke="#00f"/><text text-anchor="middle" x="988" y="-1365.5" font-family="Times New Roman" font-size="10">rdfs:label</text></g><g class="node"><title>http://richard.fussenegger.info/FHS-SW-Blatt1-Richard-Fussenegger-2.rdf#camera</title><a xlink:href="http://richard.fussenegger.info/FHS-SW-Blatt1-Richard-Fussenegger-2.rdf#camera" xlink:title="rdf:Property:\nhttp://richard.fussenegger.info/FHS-SW-Blatt1-Richard-Fussenegger-2.rdf#camera"><polygon points="405,-298 1,-298 1,-264 405,-264 405,-298" stroke="#000" fill="none"/><text text-anchor="middle" x="203" y="-285" font-family="Times New Roman" font-size="10" fill="#00f">rdf:Property:</text><text text-anchor="middle" x="203" y="-272" font-family="Times New Roman" font-size="10" fill="#00f">http://richard.fussenegger.info/FHS-SW-Blatt1-Richard-Fussenegger-2.rdf#camera</text></a></g><g class="edge"><title>http://richard.fussenegger.info/FHS-SW-Blatt1-Richard-Fussenegger-2.rdf#camera-&gt;http://richard.fussenegger.info/FHS-SW-Blatt1-Richard-Fussenegger-2.rdf#TechnicalData</title><path d="M406-266c27 2 53 4 80 5" stroke="#00f" fill="none"/><polygon points="486.398,-264.478 496,-260 485.701,-257.512 486.398,-264.478" fill="#00f" stroke="#00f"/><text text-anchor="middle" x="451" y="-270.5" font-family="Times New Roman" font-size="10">rdfs:domain</text></g><g class="edge"><title>http://richard.fussenegger.info/FHS-SW-Blatt1-Richard-Fussenegger-2.rdf#camera-&gt;http://www.w3.org/2002/07/owl#Thing</title><path d="M279-264c59 13 143 32 217 48 53 11 112 22 156 31" stroke="#00f" fill="none"/><polygon points="652.881,-188.393 662,-183 651.508,-181.529 652.881,-188.393" fill="#00f" stroke="#00f"/><text text-anchor="middle" x="451" y="-238.5" font-family="Times New Roman" font-size="10">rdfs:range</text></g><g class="node"><title>&quot;The exact camera name and model or a URI.&quot;</title><text text-anchor="middle" x="714" y="-356.5" font-family="Times New Roman" font-size="10">&quot;The exact camera name and model or a URI.&quot;</text></g><g class="edge"><title>http://richard.fussenegger.info/FHS-SW-Blatt1-Richard-Fussenegger-2.rdf#camera-&gt;&quot;The exact camera name and model or a URI.&quot;</title><path d="M299-298c57-10 131-22 197-32l89-13" stroke="#00f" fill="none"/><polygon points="584.701,-346.488 595,-344 585.398,-339.522 584.701,-346.488" fill="#00f" stroke="#00f"/><text text-anchor="middle" x="451" y="-334.5" font-family="Times New Roman" font-size="10">rdfs:comment</text></g><g class="node"><title>&quot;Camera&quot;</title><text text-anchor="middle" x="714" y="-298.5" font-family="Times New Roman" font-size="10">&quot;Camera&quot;</text></g><g class="edge"><title>http://richard.fussenegger.info/FHS-SW-Blatt1-Richard-Fussenegger-2.rdf#camera-&gt;&quot;Camera&quot;</title><path d="M406-289c99-4 208-8 267-11" stroke="#00f" fill="none"/><polygon points="673,-303.5 683,-300 673,-296.5 673,-303.5" fill="#00f" stroke="#00f"/><text text-anchor="middle" x="451" y="-297.5" font-family="Times New Roman" font-size="10">rdfs:label</text></g><g class="node"><title>http://richard.fussenegger.info/FHS-SW-Blatt1-Richard-Fussenegger-2.rdf#description</title><a xlink:href="http://richard.fussenegger.info/FHS-SW-Blatt1-Richard-Fussenegger-2.rdf#descript\nion" xlink:title="rdf:Property:\nhttp://richard.fussenegger.info/FHS-SW-Blatt1-Richard-Fussenegger-2.rdf#description"><polygon points="924,-1081 504,-1081 504,-1047 924,-1047 924,-1081" stroke="#000" fill="none"/><text text-anchor="middle" x="714" y="-1068" font-family="Times New Roman" font-size="10" fill="#00f">rdf:Property:</text><text text-anchor="middle" x="714" y="-1055" font-family="Times New Roman" font-size="10" fill="#00f">http://richard.fussenegger.info/FHS-SW-Blatt1-Richard-Fussenegger-2.rdf#description</text></a></g><g class="edge"><title>http://richard.fussenegger.info/FHS-SW-Blatt1-Richard-Fussenegger-2.rdf#description-&gt;http://www.w3.org/2000/01/rdf-schema#Literal</title><path d="M736-1081c40-29 125-88 207-117 37-13 131-26 206-35" stroke="#00f" fill="none"/><polygon points="1148.7,-1236.49 1159,-1234 1149.4,-1229.52 1148.7,-1236.49" fill="#00f" stroke="#00f"/><text text-anchor="middle" x="988" y="-1221.5" font-family="Times New Roman" font-size="10">rdfs:range</text></g><g class="edge"><title>http://richard.fussenegger.info/FHS-SW-Blatt1-Richard-Fussenegger-2.rdf#description-&gt;http://richard.fussenegger.info/FHS-SW-Blatt1-Richard-Fussenegger-2.rdf#DigitalPhoto</title><path d="M727-1047c31 41 117 143 216 183 29 11 59 18 91 22" stroke="#00f" fill="none"/><polygon points="1034.4,-845.478 1044,-841 1033.7,-838.512 1034.4,-845.478" fill="#00f" stroke="#00f"/><text text-anchor="middle" x="988" y="-868.5" font-family="Times New Roman" font-size="10">rdfs:domain</text></g><g class="edge"><title>http://richard.fussenegger.info/FHS-SW-Blatt1-Richard-Fussenegger-2.rdf#description-&gt;http://purl.org/dc/elements/1.1/description</title><path d="M855-1081c59-7 127-15 189-21 31-4 64-7 94-10" stroke="#00f" fill="none"/><polygon points="1137.7,-1115.49 1148,-1113 1138.4,-1108.52 1137.7,-1115.49" fill="#00f" stroke="#00f"/><text text-anchor="middle" x="988" y="-1106.5" font-family="Times New Roman" font-size="10">rdfs:domain</text></g><g class="node"><title>&quot;Long description of the picture&apos;s content.&quot;</title><text text-anchor="middle" x="1257" y="-1070.5" font-family="Times New Roman" font-size="10">&quot;Long description of the picture&apos;s content.&quot;</text></g><g class="edge"><title>http://richard.fussenegger.info/FHS-SW-Blatt1-Richard-Fussenegger-2.rdf#description-&gt;&quot;Long description of the picture&apos;s content.&quot;</title><path d="M925-1063c36 0 73-1 108-1l104-4" stroke="#00f" fill="none"/><polygon points="1137,-1071.5 1147,-1068 1137,-1064.5 1137,-1071.5" fill="#00f" stroke="#00f"/><text text-anchor="middle" x="988" y="-1068.5" font-family="Times New Roman" font-size="10">rdfs:comment</text></g><g class="node"><title>&quot;Description&quot;</title><text text-anchor="middle" x="1257" y="-1012.5" font-family="Times New Roman" font-size="10">&quot;Description&quot;</text></g><g class="edge"><title>http://richard.fussenegger.info/FHS-SW-Blatt1-Richard-Fussenegger-2.rdf#description-&gt;&quot;Description&quot;</title><path d="M902-1047c108 10 237 21 306 27" stroke="#00f" fill="none"/><polygon points="1208.4,-1023.48 1218,-1019 1207.7,-1016.51 1208.4,-1023.48" fill="#00f" stroke="#00f"/><text text-anchor="middle" x="988" y="-1047.5" font-family="Times New Roman" font-size="10">rdfs:label</text></g><g class="node"><title>http://richard.fussenegger.info/FHS-SW-Blatt1-Richard-Fussenegger-2.rdf#title</title><a xlink:href="http://richard.fussenegger.info/FHS-SW-Blatt1-Richard-Fussenegger-2.rdf#title" xlink:title="rdf:Property:\nhttp://richard.fussenegger.info/FHS-SW-Blatt1-Richard-Fussenegger-2.rdf#title"><polygon points="907,-841 521,-841 521,-807 907,-807 907,-841" stroke="#000" fill="none"/><text text-anchor="middle" x="714" y="-828" font-family="Times New Roman" font-size="10" fill="#00f">rdf:Property:</text><text text-anchor="middle" x="714" y="-815" font-family="Times New Roman" font-size="10" fill="#00f">http://richard.fussenegger.info/FHS-SW-Blatt1-Richard-Fussenegger-2.rdf#title</text></a></g><g class="edge"><title>http://richard.fussenegger.info/FHS-SW-Blatt1-Richard-Fussenegger-2.rdf#title-&gt;http://www.w3.org/2000/01/rdf-schema#Literal</title><path d="M742-841c48-32 147-105 190-195 12-25-6-102 11-122 27-32 51-13 90-23 62-17 134-37 179-50" stroke="#00f" fill="none"/><polygon points="1211.42,-1234.48 1222,-1234 1213.43,-1227.77 1211.42,-1234.48" fill="#00f" stroke="#00f"/><text text-anchor="middle" x="988" y="-1185.5" font-family="Times New Roman" font-size="10">rdfs:range</text></g><g class="edge"><title>http://richard.fussenegger.info/FHS-SW-Blatt1-Richard-Fussenegger-2.rdf#title-&gt;http://richard.fussenegger.info/FHS-SW-Blatt1-Richard-Fussenegger-2.rdf#DigitalPhoto</title><path d="M908-820c41 0 85-1 125-4 34-3 70-6 103-11" stroke="#00f" fill="none"/><polygon points="1135.7,-838.488 1146,-836 1136.4,-831.522 1135.7,-838.488" fill="#00f" stroke="#00f"/><text text-anchor="middle" x="988" y="-828.5" font-family="Times New Roman" font-size="10">rdfs:domain</text></g><g class="edge"><title>http://richard.fussenegger.info/FHS-SW-Blatt1-Richard-Fussenegger-2.rdf#title-&gt;http://purl.org/dc/elements/1.1/title</title><path d="M727-807c31 41 116 145 216 183 38 14 52 11 90 0l11-7c35-13 75-19 111-21" stroke="#00f" fill="none"/><polygon points="1154.7,-655.488 1165,-653 1155.4,-648.522 1154.7,-655.488" fill="#00f" stroke="#00f"/><text text-anchor="middle" x="988" y="-628.5" font-family="Times New Roman" font-size="10">rdfs:subPropertyOf</text></g><g class="node"><title>&quot;Short description of the picture&apos;s content.&quot;</title><text text-anchor="middle" x="1257" y="-954.5" font-family="Times New Roman" font-size="10">&quot;Short description of the picture&apos;s content.&quot;</text></g><g class="edge"><title>http://richard.fussenegger.info/FHS-SW-Blatt1-Richard-Fussenegger-2.rdf#title-&gt;&quot;Short description of the picture&apos;s content.&quot;</title><path d="M734-841c39-31 125-95 209-117 62-17 134-18 193-15" stroke="#00f" fill="none"/><polygon points="1136.4,-976.478 1146,-972 1135.7,-969.512 1136.4,-976.478" fill="#00f" stroke="#00f"/><text text-anchor="middle" x="988" y="-978.5" font-family="Times New Roman" font-size="10">rdfs:comment</text></g><g class="node"><title>&quot;Title&quot;</title><text text-anchor="middle" x="1257" y="-781.5" font-family="Times New Roman" font-size="10">&quot;Title&quot;</text></g><g class="edge"><title>http://richard.fussenegger.info/FHS-SW-Blatt1-Richard-Fussenegger-2.rdf#title-&gt;&quot;Title&quot;</title><path d="M906-807c13 1 25 2 37 3 100 8 218 14 277 17" stroke="#00f" fill="none"/><polygon points="1220.4,-790.478 1230,-786 1219.7,-783.512 1220.4,-790.478" fill="#00f" stroke="#00f"/><text text-anchor="middle" x="988" y="-808.5" font-family="Times New Roman" font-size="10">rdfs:label</text></g><g class="node"><title>http://richard.fussenegger.info/FHS-SW-Blatt1-Richard-Fussenegger-2.rdf#creator</title><a xlink:href="http://richard.fussenegger.info/FHS-SW-Blatt1-Richard-Fussenegger-2.rdf#creator" xlink:title="rdf:Property:\nhttp://richard.fussenegger.info/FHS-SW-Blatt1-Richard-Fussenegger-2.rdf#creator"><polygon points="915,-601 513,-601 513,-567 915,-567 915,-601" stroke="#000" fill="none"/><text text-anchor="middle" x="714" y="-588" font-family="Times New Roman" font-size="10" fill="#00f">rdf:Property:</text><text text-anchor="middle" x="714" y="-575" font-family="Times New Roman" font-size="10" fill="#00f">http://richard.fussenegger.info/FHS-SW-Blatt1-Richard-Fussenegger-2.rdf#creator</text></a></g><g class="edge"><title>http://richard.fussenegger.info/FHS-SW-Blatt1-Richard-Fussenegger-2.rdf#creator-&gt;http://www.w3.org/2000/01/rdf-schema#Literal</title><path d="M742-601c50-32 150-104 190-195 15-33-11-295 11-322 26-33 52-10 90-23 73-26 154-67 196-88" stroke="#00f" fill="none"/><polygon points="1227.56,-1232.2 1238,-1234 1230.96,-1226.08 1227.56,-1232.2" fill="#00f" stroke="#00f"/><text text-anchor="middle" x="988" y="-1145.5" font-family="Times New Roman" font-size="10">rdfs:range</text></g><g class="edge"><title>http://richard.fussenegger.info/FHS-SW-Blatt1-Richard-Fussenegger-2.rdf#creator-&gt;http://purl.org/dc/elements/1.1/creator</title><path d="M785-567c66 16 169 38 259 52 34 5 70 9 103 12" stroke="#00f" fill="none"/><polygon points="1147.4,-506.478 1157,-502 1146.7,-499.512 1147.4,-506.478" fill="#00f" stroke="#00f"/><text text-anchor="middle" x="988" y="-539.5" font-family="Times New Roman" font-size="10">rdfs:subPropertyOf</text></g><g class="edge"><title>http://richard.fussenegger.info/FHS-SW-Blatt1-Richard-Fussenegger-2.rdf#creator-&gt;http://richard.fussenegger.info/FHS-SW-Blatt1-Richard-Fussenegger-2.rdf#DigitalPhoto</title><path d="M744-601c76-43 268-154 289-180 10-12 0-23 11-32 9-7 18-13 28-19" stroke="#00f" fill="none"/><polygon points="1070.44,-835.137 1081,-836 1073.28,-828.74 1070.44,-835.137" fill="#00f" stroke="#00f"/><text text-anchor="middle" x="988" y="-785.5" font-family="Times New Roman" font-size="10">rdfs:domain</text></g><g class="node"><title>&quot;The creator of the photo.&quot;</title><text text-anchor="middle" x="1257" y="-599.5" font-family="Times New Roman" font-size="10">&quot;The creator of the photo.&quot;</text></g><g class="edge"><title>http://richard.fussenegger.info/FHS-SW-Blatt1-Richard-Fussenegger-2.rdf#creator-&gt;&quot;The creator of the photo.&quot;</title><path d="M916-582c39 0 79-1 117-2 47-3 100-6 142-10" stroke="#00f" fill="none"/><polygon points="1174.7,-597.488 1185,-595 1175.4,-590.522 1174.7,-597.488" fill="#00f" stroke="#00f"/><text text-anchor="middle" x="988" y="-588.5" font-family="Times New Roman" font-size="10">rdfs:comment</text></g><g class="node"><title>&quot;Creator&quot;</title><text text-anchor="middle" x="1257" y="-541.5" font-family="Times New Roman" font-size="10">&quot;Creator&quot;</text></g><g class="edge"><title>http://richard.fussenegger.info/FHS-SW-Blatt1-Richard-Fussenegger-2.rdf#creator-&gt;&quot;Creator&quot;</title><path d="M916-567l27 2c98 7 214 14 274 18" stroke="#00f" fill="none"/><polygon points="1217.4,-550.478 1227,-546 1216.7,-543.512 1217.4,-550.478" fill="#00f" stroke="#00f"/><text text-anchor="middle" x="988" y="-569.5" font-family="Times New Roman" font-size="10">rdfs:label</text></g><g class="node"><title>http://richard.fussenegger.info/FHS-SW-Blatt1-Richard-Fussenegger-2.rdf#location</title><a xlink:href="http://richard.fussenegger.info/FHS-SW-Blatt1-Richard-Fussenegger-2.rdf#location" xlink:title="rdf:Property:\nhttp://richard.fussenegger.info/FHS-SW-Blatt1-Richard-Fussenegger-2.rdf#location"><polygon points="917,-433 511,-433 511,-399 917,-399 917,-433" stroke="#000" fill="none"/><text text-anchor="middle" x="714" y="-420" font-family="Times New Roman" font-size="10" fill="#00f">rdf:Property:</text><text text-anchor="middle" x="714" y="-407" font-family="Times New Roman" font-size="10" fill="#00f">http://richard.fussenegger.info/FHS-SW-Blatt1-Richard-Fussenegger-2.rdf#location</text></a></g><g class="edge"><title>http://richard.fussenegger.info/FHS-SW-Blatt1-Richard-Fussenegger-2.rdf#location-&gt;http://richard.fussenegger.info/FHS-SW-Blatt1-Richard-Fussenegger-2.rdf#DigitalPhoto</title><path d="M764-433c52-21 130-60 168-123 15-24-6-102 11-122 27-32 64 6 90-25 16-19-5-92 11-110 7-7 14-13 21-18" stroke="#00f" fill="none"/><polygon points="1063.56,-834.203 1074,-836 1066.96,-828.084 1063.56,-834.203" fill="#00f" stroke="#00f"/><text text-anchor="middle" x="988" y="-707.5" font-family="Times New Roman" font-size="10">rdfs:domain</text></g><g class="edge"><title>http://richard.fussenegger.info/FHS-SW-Blatt1-Richard-Fussenegger-2.rdf#location-&gt;http://www.geonames.org/ontology#name</title><path d="M917-405c9 0 18 1 26 1 64 2 136 5 195 7" stroke="#00f" fill="none"/><polygon points="1138,-400.5 1148,-397 1138,-393.5 1138,-400.5" fill="#00f" stroke="#00f"/><text text-anchor="middle" x="988" y="-408.5" font-family="Times New Roman" font-size="10">rdfs:range</text></g><g class="edge"><title>http://richard.fussenegger.info/FHS-SW-Blatt1-Richard-Fussenegger-2.rdf#location-&gt;http://www.geonames.org/ontology</title><path d="M880-399c18 3 35 7 52 11 6 1 6 2 11 4 44 10 57 6 101 11 36 4 77 7 112 11" stroke="#00f" fill="none"/><polygon points="1156.4,-365.478 1166,-361 1155.7,-358.512 1156.4,-365.478" fill="#00f" stroke="#00f"/><text text-anchor="middle" x="988" y="-391.5" font-family="Times New Roman" font-size="10">rdfs:subPropertyOf</text></g><g class="node"><title>&quot;The location where the photo was taken.&quot;</title><text text-anchor="middle" x="1257" y="-299.5" font-family="Times New Roman" font-size="10">&quot;The location where the photo was taken.&quot;</text></g><g class="edge"><title>http://richard.fussenegger.info/FHS-SW-Blatt1-Richard-Fussenegger-2.rdf#location-&gt;&quot;The location where the photo was taken.&quot;</title><path d="M916-399c6 3 11 7 16 11 12 8 1 20 11 30 35 31 56 17 101 27 31 6 64 11 95 16" stroke="#00f" fill="none"/><polygon points="1139.4,-318.478 1149,-314 1138.7,-311.512 1139.4,-318.478" fill="#00f" stroke="#00f"/><text text-anchor="middle" x="988" y="-365.5" font-family="Times New Roman" font-size="10">rdfs:comment</text></g><g class="node"><title>&quot;Location&quot;</title><text text-anchor="middle" x="1257" y="-441.5" font-family="Times New Roman" font-size="10">&quot;Location&quot;</text></g><g class="edge"><title>http://richard.fussenegger.info/FHS-SW-Blatt1-Richard-Fussenegger-2.rdf#location-&gt;&quot;Location&quot;</title><path d="M917-426c110-6 234-12 298-15" stroke="#00f" fill="none"/><polygon points="1214.7,-444.488 1225,-442 1215.4,-437.522 1214.7,-444.488" fill="#00f" stroke="#00f"/><text text-anchor="middle" x="988" y="-437.5" font-family="Times New Roman" font-size="10">rdfs:label</text></g></g></svg>