<svg width="1658pt" height="446pt" viewBox="0.00 0.00 1658.00 445.71" xmlns="http://www.w3.org/2000/svg" xmlns:xlink="http://www.w3.org/1999/xlink"><g class="graph" transform="translate(4 441.711)"><title>dotfile</title><polygon fill="#fff" stroke="#fff" points="-4,5 -4,-441.711 1655,-441.711 1655,5 -4,5"/><g class="node"><title>https://commons.wikimedia.org/wiki/File:Kunsthaus_Bregenz.jpg</title><a xlink:href="https://commons.wikimedia.org/wiki/File:Kunsthaus_Bregenz.jpg" xlink:title="https://commons.wikimedia.org/wiki/File:Kunsthaus_Bregenz.jpg"><ellipse stroke="#000" cx="236" cy="-214.711" rx="235.77" ry="18" fill="none"/><text text-anchor="middle" x="236" y="-212.211" font-family="'Courier New'" font-size="10" fill="#00f">https://commons.wikimedia.org/wiki/File:Kunsthaus_Bregenz.jpg</text></a></g><g class="node"><title>http://richard.fussenegger.info/FHS-SW-Blatt1-Richard-Fussenegger-2.rdf#DigitalPhoto</title><a xlink:href="http://richard.fussenegger.info/FHS-SW-Blatt1-Richard-Fussenegger-2.rdf#DigitalPhoto" xlink:title="http://richard.fussenegger.info/FHS-SW-Blatt1-Richard-Fussenegger-2.rdf#DigitalPhoto"><ellipse stroke="#000" cx="1329" cy="-403.711" rx="320.22" ry="18" fill="none"/><text text-anchor="middle" x="1329" y="-401.211" font-family="'Courier New'" font-size="10" fill="#00f">http://richard.fussenegger.info/FHS-SW-Blatt1-Richard-Fussenegger-2.rdf#DigitalPhoto</text></a></g><g class="edge"><title>https://commons.wikimedia.org/wiki/File:Kunsthaus_Bregenz.jpg-&gt;http://richard.fussenegger.info/FHS-SW-Blatt1-Richard-Fussenegger-2.rdf#DigitalPhoto</title><a xlink:href="http://www.w3.org/1999/02/22-rdf-syntax-ns#type" xlink:title="http://www.w3.org/1999/02/22-rdf-syntax-ns#type"><path stroke="#006400" d="M257.668-232.748c41.777-33.536 137.724-104.648 232.332-132.963 223.243-66.815 494.735-65.017 667.23-54.234" fill="none"/><polygon fill="#006400" stroke="#006400" points="1157.66,-423.424 1167.42,-419.29 1157.22,-416.439 1157.66,-423.424"/></a><a xlink:href="http://www.w3.org/1999/02/22-rdf-syntax-ns#type" xlink:title="http://www.w3.org/1999/02/22-rdf-syntax-ns#type"><text text-anchor="middle" x="740" y="-428.711" font-family="'Courier New'" font-size="10" fill="#f00">http://www.w3.org/1999/02/22-rdf-syntax-ns#type</text></a></g><g class="node"><title>Literal_1</title><polygon stroke="#000" points="1388,-367.711 1270,-367.711 1270,-331.711 1388,-331.711 1388,-367.711" fill="none"/><text text-anchor="middle" x="1329" y="-347.211" font-family="'Courier New'" font-size="10" fill="#00f">Kunsthaus Bregenz</text></g><g class="edge"><title>https://commons.wikimedia.org/wiki/File:Kunsthaus_Bregenz.jpg-&gt;Literal_1</title><a xlink:href="http://richard.fussenegger.info/FHS-SW-Blatt1-Richard-Fussenegger-2.rdf#title" xlink:title="http://richard.fussenegger.info/FHS-SW-Blatt1-Richard-Fussenegger-2.rdf#title"><path stroke="#006400" d="M277.775-232.494c49.598-20.212 135.299-52.325 212.225-67.217 281.2-54.439 624.44-54.791 769.25-51.994" fill="none"/><polygon fill="#006400" stroke="#006400" points="1259.41,-355.202 1269.33,-351.498 1259.26,-348.204 1259.41,-355.202"/></a><a xlink:href="http://richard.fussenegger.info/FHS-SW-Blatt1-Richard-Fussenegger-2.rdf#title" xlink:title="http://richard.fussenegger.info/FHS-SW-Blatt1-Richard-Fussenegger-2.rdf#title"><text text-anchor="middle" x="740" y="-352.711" font-family="'Courier New'" font-size="10" fill="#f00">http://richard.fussenegger.info/FHS-SW-Blatt1-Richard-Fussenegger-2.rdf#title</text></a></g><g class="node"><title>Literal_2</title><polygon stroke="#000" points="1439,-313.711 1219,-313.711 1219,-277.711 1439,-277.711 1439,-313.711" fill="none"/><text text-anchor="middle" x="1329" y="-293.211" font-family="'Courier New'" font-size="10" fill="#00f">Das berühmte Kunsthaus in Bregenz.</text></g><g class="edge"><title>https://commons.wikimedia.org/wiki/File:Kunsthaus_Bregenz.jpg-&gt;Literal_2</title><a xlink:href="http://richard.fussenegger.info/FHS-SW-Blatt1-Richard-Fussenegger-2.rdf#description" xlink:title="http://richard.fussenegger.info/FHS-SW-Blatt1-Richard-Fussenegger-2.rdf#description"><path stroke="#006400" d="M339.274-230.901c46.034-6.711 100.989-14.028 150.726-18.81 254.949-24.513 554.83-37.039 718.09-42.491" fill="none"/><polygon fill="#006400" stroke="#006400" points="1208.06,-295.702 1218.17,-292.535 1208.29,-288.706 1208.06,-295.702"/></a><a xlink:href="http://richard.fussenegger.info/FHS-SW-Blatt1-Richard-Fussenegger-2.rdf#description" xlink:title="http://richard.fussenegger.info/FHS-SW-Blatt1-Richard-Fussenegger-2.rdf#description"><text text-anchor="middle" x="740" y="-286.711" font-family="'Courier New'" font-size="10" fill="#f00">http://richard.fussenegger.info/FHS-SW-Blatt1-Richard-Fussenegger-2.rdf#description</text></a></g><g class="node"><title>Literal_3</title><polygon stroke="#000" points="1394,-259.711 1264,-259.711 1264,-223.711 1394,-223.711 1394,-259.711" fill="none"/><text text-anchor="middle" x="1329" y="-239.211" font-family="'Courier New'" font-size="10" fill="#00f">Florian Glöcklhofer</text></g><g class="edge"><title>https://commons.wikimedia.org/wiki/File:Kunsthaus_Bregenz.jpg-&gt;Literal_3</title><a xlink:href="http://richard.fussenegger.info/FHS-SW-Blatt1-Richard-Fussenegger-2.rdf#creator" xlink:title="http://richard.fussenegger.info/FHS-SW-Blatt1-Richard-Fussenegger-2.rdf#creator"><path stroke="#006400" d="M460.814-220.265c247.162-6.105 630.626-15.578 792.256-19.571" fill="none"/><polygon fill="#006400" stroke="#006400" points="1253.31,-243.342 1263.39,-240.091 1253.48,-236.345 1253.31,-243.342"/></a><a xlink:href="http://richard.fussenegger.info/FHS-SW-Blatt1-Richard-Fussenegger-2.rdf#creator" xlink:title="http://richard.fussenegger.info/FHS-SW-Blatt1-Richard-Fussenegger-2.rdf#creator"><text text-anchor="middle" x="740" y="-236.711" font-family="'Courier New'" font-size="10" fill="#f00">http://richard.fussenegger.info/FHS-SW-Blatt1-Richard-Fussenegger-2.rdf#creator</text></a></g><g class="node"><title>Literal_4</title><polygon stroke="#000" points="1385,-205.711 1273,-205.711 1273,-169.711 1385,-169.711 1385,-205.711" fill="none"/><text text-anchor="middle" x="1329" y="-185.211" font-family="'Courier New'" font-size="10" fill="#00f">2004-08-28T13:33</text></g><g class="edge"><title>https://commons.wikimedia.org/wiki/File:Kunsthaus_Bregenz.jpg-&gt;Literal_4</title><a xlink:href="http://richard.fussenegger.info/FHS-SW-Blatt1-Richard-Fussenegger-2.rdf#date" xlink:title="http://richard.fussenegger.info/FHS-SW-Blatt1-Richard-Fussenegger-2.rdf#date"><path stroke="#006400" d="M438.745-205.491c17.335.655 34.601 1.26 51.255 1.78 287.139 8.954 629.72 13.607 771.97 15.272" fill="none"/><polygon fill="#006400" stroke="#006400" points="1262.31,-191.935 1272.27,-188.319 1262.23,-184.936 1262.31,-191.935"/></a><a xlink:href="http://richard.fussenegger.info/FHS-SW-Blatt1-Richard-Fussenegger-2.rdf#date" xlink:title="http://richard.fussenegger.info/FHS-SW-Blatt1-Richard-Fussenegger-2.rdf#date"><text text-anchor="middle" x="740" y="-207.711" font-family="'Courier New'" font-size="10" fill="#f00">http://richard.fussenegger.info/FHS-SW-Blatt1-Richard-Fussenegger-2.rdf#date</text></a></g><g class="node"><title>http://sws.geonames.org/2781503</title><a xlink:href="http://sws.geonames.org/2781503" xlink:title="http://sws.geonames.org/2781503"><ellipse stroke="#000" cx="1329" cy="-133.711" rx="124.964" ry="18" fill="none"/><text text-anchor="middle" x="1329" y="-131.211" font-family="'Courier New'" font-size="10" fill="#00f">http://sws.geonames.org/2781503</text></a></g><g class="edge"><title>https://commons.wikimedia.org/wiki/File:Kunsthaus_Bregenz.jpg-&gt;http://sws.geonames.org/2781503</title><a xlink:href="http://richard.fussenegger.info/FHS-SW-Blatt1-Richard-Fussenegger-2.rdf#location" xlink:title="http://richard.fussenegger.info/FHS-SW-Blatt1-Richard-Fussenegger-2.rdf#location"><path stroke="#006400" d="M326.505-198.039c48.353 8.294 108.986 17.72 163.495 23.328 247.775 25.489 538.39 35.217 704.39 38.869" fill="none"/><polygon fill="#006400" stroke="#006400" points="1194.73,-139.336 1204.66,-135.621 1194.58,-132.338 1194.73,-139.336"/></a><a xlink:href="http://richard.fussenegger.info/FHS-SW-Blatt1-Richard-Fussenegger-2.rdf#location" xlink:title="http://richard.fussenegger.info/FHS-SW-Blatt1-Richard-Fussenegger-2.rdf#location"><text text-anchor="middle" x="740" y="-178.711" font-family="'Courier New'" font-size="10" fill="#f00">http://richard.fussenegger.info/FHS-SW-Blatt1-Richard-Fussenegger-2.rdf#location</text></a></g><g class="node"><title>http://www.dbpedialite.org/things/3790493</title><a xlink:href="http://www.dbpedialite.org/things/3790493" xlink:title="http://www.dbpedialite.org/things/3790493"><ellipse stroke="#000" cx="1329" cy="-79.711" rx="161.899" ry="18" fill="none"/><text text-anchor="middle" x="1329" y="-77.211" font-family="'Courier New'" font-size="10" fill="#00f">http://www.dbpedialite.org/things/3790493</text></a></g><g class="edge"><title>https://commons.wikimedia.org/wiki/File:Kunsthaus_Bregenz.jpg-&gt;http://www.dbpedialite.org/things/3790493</title><a xlink:href="http://richard.fussenegger.info/FHS-SW-Blatt1-Richard-Fussenegger-2.rdf#camera" xlink:title="http://richard.fussenegger.info/FHS-SW-Blatt1-Richard-Fussenegger-2.rdf#camera"><path stroke="#006400" d="M275.035-196.902c49.029 21.429 136.284 56.482 214.965 72.191 230.014 45.921 502.085 51.909 672.63 50.011" fill="none"/><polygon fill="#006400" stroke="#006400" points="1162.66,-78.2006 1172.7,-74.8226 1162.75,-71.2011 1162.66,-78.2006"/></a><a xlink:href="http://richard.fussenegger.info/FHS-SW-Blatt1-Richard-Fussenegger-2.rdf#camera" xlink:title="http://richard.fussenegger.info/FHS-SW-Blatt1-Richard-Fussenegger-2.rdf#camera"><text text-anchor="middle" x="740" y="-128.711" font-family="'Courier New'" font-size="10" fill="#f00">http://richard.fussenegger.info/FHS-SW-Blatt1-Richard-Fussenegger-2.rdf#camera</text></a></g><g class="node"><title>Literal_5</title><polygon stroke="#000" points="1475,-43.7113 1183,-43.7113 1183,-7.71129 1475,-7.71129 1475,-43.7113" fill="none"/><text text-anchor="middle" x="1329" y="-23.211" font-family="'Courier New'" font-size="10" fill="#00f">Exposure time:1/500 sec (0.002);F-number:f/3.5</text></g><g class="edge"><title>https://commons.wikimedia.org/wiki/File:Kunsthaus_Bregenz.jpg-&gt;Literal_5</title><a xlink:href="http://richard.fussenegger.info/FHS-SW-Blatt1-Richard-Fussenegger-2.rdf#details" xlink:title="http://richard.fussenegger.info/FHS-SW-Blatt1-Richard-Fussenegger-2.rdf#details"><path stroke="#006400" d="M256.894-196.563c41.208 34.508 137.297 108.734 233.106 137.852 229.568 69.769 510.77 63.463 682.3 50.066" fill="none"/><polygon fill="#006400" stroke="#006400" points="1172.17,-12.1459 1182.42,-9.45354 1172.73,-5.16812 1172.17,-12.1459"/></a><a xlink:href="http://richard.fussenegger.info/FHS-SW-Blatt1-Richard-Fussenegger-2.rdf#details" xlink:title="http://richard.fussenegger.info/FHS-SW-Blatt1-Richard-Fussenegger-2.rdf#details"><text text-anchor="middle" x="740" y="-62.711" font-family="'Courier New'" font-size="10" fill="#f00">http://richard.fussenegger.info/FHS-SW-Blatt1-Richard-Fussenegger-2.rdf#details</text></a></g></g></svg>